<?xml version="1.0" encoding="utf-8"?>
<!-- Generator: Adobe Illustrator 25.3.1, SVG Export Plug-In . SVG Version: 6.00 Build 0)  -->
<svg version="1.1" xmlns="http://www.w3.org/2000/svg" xmlns:xlink="http://www.w3.org/1999/xlink" x="0px" y="0px"
	 viewBox="0 0 640 640" style="enable-background:new 0 0 640 640;" xml:space="preserve">
<style type="text/css">
	.st0{display:none;}
	.st1{display:inline;fill:#FFFFFF;stroke:#000000;stroke-width:1.1939;stroke-miterlimit:10;}
	.st2{display:none;opacity:0.65;}
	.st3{display:inline;opacity:0.5;fill:#FFFFFF;stroke:#000000;stroke-miterlimit:10;}
	.st4{display:inline;fill:none;stroke:#000000;stroke-miterlimit:10;}
	.st5{display:inline;}
	.st6{fill:#B3B3B3;}
	.st7{fill:#444444;}
	.st8{display:inline;fill:#B3B3B3;}
	.st9{display:inline;fill:#E6E6E6;}
	.st10{display:inline;fill:#CCCCCC;}
	.st11{display:inline;fill:#999999;}
	.st12{display:inline;fill:#F2F2F2;}
	.st13{display:inline;fill:#DE646F;}
	.st14{display:inline;fill:#007989;}
	.st15{opacity:0.55;fill:#FFFFFF;}
	.st16{opacity:0.45;fill:#FFFFFF;}
	.st17{opacity:0.7;fill:#FFFFFF;}
	.st18{opacity:0.9;fill:#FFFFFF;}
	.st19{opacity:0.5;fill:#FFFFFF;}
	.st20{opacity:0.97;fill:#FFFFFF;}
	.st21{opacity:0.3;fill:#FFFFFF;}
	.st22{display:inline;opacity:0.5;fill:#FFFFFF;}
	.st23{display:inline;opacity:0.55;fill:#FFFFFF;}
	.st24{display:inline;opacity:0.9;fill:#FFFFFF;}
	.st25{display:inline;opacity:0.3;fill:#FFFFFF;}
</style>
<g id="RU_x5F_复制" class="st0">
	
		<rect x="-46.1" y="204.9" transform="matrix(0.7071 -0.7071 0.7071 0.7071 -115.9704 195.8442)" class="st1" width="449" height="66"/>
	
		<rect x="-18.1" y="329.9" transform="matrix(0.7071 -0.7071 0.7071 0.7071 -196.1577 252.2548)" class="st1" width="449" height="66"/>
	
		<rect x="287.9" y="206.9" transform="matrix(0.7071 -0.7071 0.7071 0.7071 -19.5584 432.6035)" class="st1" width="449" height="66"/>
	
		<rect x="257.9" y="424.9" transform="matrix(0.7071 -0.7071 0.7071 0.7071 -182.4944 475.241)" class="st1" width="449" height="66"/>
	
		<rect x="-42.2" y="374.9" transform="matrix(0.7071 0.7071 -0.7071 0.7071 341.8195 -9.4028)" class="st1" width="449" height="66"/>
	
		<rect x="288.8" y="330.9" transform="matrix(0.7071 0.7071 -0.7071 0.7071 407.6546 -256.3426)" class="st1" width="449" height="66"/>
</g>
<g id="备份" class="st2">
	
		<rect id="middle_x5F_skew_15_" x="-11.5" y="261.5" transform="matrix(1.019615e-06 -1 1 1.019615e-06 -59.0003 571.9997)" class="st3" width="536" height="108"/>
	
		<rect id="middle_x5F_skew_14_" x="65.5" y="305.5" transform="matrix(0.866 -0.5 0.5 0.866 -135.0693 214.9134)" class="st3" width="536" height="108"/>
	
		<rect id="middle_x5F_skew_13_" x="112.5" y="148.5" transform="matrix(-0.866 -0.5 0.5 -0.866 608.7722 568.1204)" class="st3" width="536" height="108"/>
	
		<rect id="middle_x5F_skew_12_" x="139.5" y="375.5" transform="matrix(-0.866 -0.5 0.5 -0.866 545.6547 1005.2081)" class="st3" width="536" height="108"/>
	
		<rect id="middle_x5F_skew_7_" x="-505.5" y="119.5" transform="matrix(0.5 -0.866 0.866 0.5 -269.0054 -118.931)" class="st3" width="536" height="108"/>
	<line class="st4" x1="513" y1="373.5" x2="107" y2="373.5"/>
	<line class="st4" x1="513" y1="541.5" x2="107" y2="541.5"/>
	<line class="st4" x1="78.2" y1="613" x2="429.8" y2="410"/>
	<line class="st4" x1="432.8" y1="536" x2="81.2" y2="333"/>
	<line class="st4" x1="529.8" y1="378" x2="178.2" y2="175"/>
	<line class="st4" x1="493" y1="574.5" x2="493" y2="168.5"/>
	<line class="st4" x1="52.2" y1="249" x2="403.8" y2="46"/>
</g>
<g id="背景_1_" class="st0">
	
		<image style="display:inline;overflow:visible;" width="713" height="713" xlink:href="E3FF825C755E1AFB.png"  transform="matrix(1 0 0 1 -37 -37)">
	</image>
</g>
<g id="one" class="st0">
	<g class="st5">
		<g class="st0">
			<g class="st5">
				<path class="st6" d="M632,90c3.9,0,7,3.1,7,7v444c0,3.9-3.1,7-7,7H8c-3.9,0-7-3.1-7-7V97c0-3.9,3.1-7,7-7H632 M632,89H8
					c-4.4,0-8,3.6-8,8v444c0,4.4,3.6,8,8,8h624c4.4,0,8-3.6,8-8V97C640,92.6,636.4,89,632,89L632,89z"/>
			</g>
			<g class="st5">
				<path class="st6" d="M588.9,47c3.9,0,7.1,3.2,7.1,7.1v530.8c0,3.9-3.2,7.1-7.1,7.1H51.1c-3.9,0-7.1-3.2-7.1-7.1V54.1
					c0-3.9,3.2-7.1,7.1-7.1H588.9 M588.9,46H51.1c-4.5,0-8.1,3.6-8.1,8.1v530.8c0,4.5,3.6,8.1,8.1,8.1h537.8c4.5,0,8.1-3.6,8.1-8.1
					V54.1C597,49.6,593.4,46,588.9,46L588.9,46z"/>
			</g>
			<g class="st5">
				<path class="st6" d="M542,0c3.9,0,7,3.1,7,7v624c0,3.9-3.1,7-7,7H98c-3.9,0-7-3.1-7-7V7c0-3.9,3.1-7,7-7H542 M542-1H98
					c-4.4,0-8,3.6-8,8v624c0,4.4,3.6,8,8,8h444c4.4,0,8-3.6,8-8V7C550,2.6,546.4-1,542-1L542-1z"/>
			</g>
		</g>
		<circle class="st7" cx="320" cy="319" r="313"/>
	</g>
	<polygon class="st8" points="289.8,198.2 289.8,232.2 208,184.9 208,150.9 	"/>
	<polygon class="st8" points="289.8,454.6 289.8,488.2 208,441 208,407.4 	"/>
	<polygon class="st9" points="430,184.7 430,279.1 348.3,231.9 289.8,198.2 208,150.9 208,150.8 289.7,103.7 289.8,103.7 	"/>
	<polygon class="st10" points="289.8,232.2 289.8,360.1 289.7,360.2 208,313 208,184.9 	"/>
	<polygon class="st10" points="289.8,488.2 289.8,488.5 208.2,535.6 208,535.4 208,441 	"/>
	<polygon class="st11" points="430,279.1 430,279.2 400.6,296.1 318.8,248.9 348.3,231.9 	"/>
	<polygon class="st8" points="400.6,296.1 318.8,343.4 289.8,360.1 289.8,265.7 318.8,248.9 	"/>
	<polygon class="st12" points="430,441.2 430,535.6 400.9,518.8 319.1,471.6 289.8,454.6 208,407.4 208,313 289.7,360.2 
		289.8,360.2 400.9,424.3 	"/>
</g>
<g id="半透明">
	<g class="st0">
		<g>
			<g class="st5">
				<path class="st6" d="M632,91c3.9,0,7,3.1,7,7v444c0,3.9-3.1,7-7,7H8c-3.9,0-7-3.1-7-7V98c0-3.9,3.1-7,7-7H632 M632,90H8
					c-4.4,0-8,3.6-8,8v444c0,4.4,3.6,8,8,8h624c4.4,0,8-3.6,8-8V98C640,93.6,636.4,90,632,90L632,90z"/>
			</g>
			<g class="st5">
				<path class="st6" d="M588.9,48c3.9,0,7.1,3.2,7.1,7.1v530.8c0,3.9-3.2,7.1-7.1,7.1H51.1c-3.9,0-7.1-3.2-7.1-7.1V55.1
					c0-3.9,3.2-7.1,7.1-7.1H588.9 M588.9,47H51.1c-4.5,0-8.1,3.6-8.1,8.1v530.8c0,4.5,3.6,8.1,8.1,8.1h537.8c4.5,0,8.1-3.6,8.1-8.1
					V55.1C597,50.6,593.4,47,588.9,47L588.9,47z"/>
			</g>
			<g class="st5">
				<path class="st6" d="M542,1c3.9,0,7,3.1,7,7v624c0,3.9-3.1,7-7,7H98c-3.9,0-7-3.1-7-7V8c0-3.9,3.1-7,7-7H542 M542,0H98
					c-4.4,0-8,3.6-8,8v624c0,4.4,3.6,8,8,8h444c4.4,0,8-3.6,8-8V8C550,3.6,546.4,0,542,0L542,0z"/>
			</g>
		</g>
		<circle class="st13" cx="320" cy="320" r="313"/>
	</g>
	<g id="图层_9" class="st0">
		<circle class="st14" cx="320" cy="320" r="300"/>
	</g>
	<polygon id="斜中部最底层_2_" class="st15" points="441.8,341.4 390.5,371 282.9,308.9 334.2,279.3 	"/>
	<polygon id="斜中部阴影_2_" class="st16" points="467,325.8 467,326.8 441.8,341.4 334.2,279.3 360.3,264.2 	"/>
	<polygon id="垂直底部_2_" class="st17" points="284,463.8 284,477.2 176,539.5 176,401.4 	"/>
	<polygon id="垂直底部阴影_2_" class="st15" points="284,433 284,464 176,401.7 176,371 176.3,370.8 	"/>
	<polygon id="垂直中部_2_" class="st17" points="284,250.5 284,310 176.5,247.9 176,247.6 176,188.1 	"/>
	<polygon id="垂直中部阴影_2_" class="st15" points="284,220.4 284,250.7 176,188.3 176,158.9 176.7,158.5 215.4,180.8 	"/>
	<polygon id="中部斜线_2_" class="st18" points="466,414.1 466,538.1 427.6,515.9 320.2,453.9 282.3,432 282,431.8 175,370 
		174.7,369.9 121.5,339.2 134.7,316.4 174.7,247.2 175.2,246.2 282,307.9 282,308.3 282.3,308.1 389.6,370 427.6,391.9 	"/>
	<polygon id="顶部斜线_2_" class="st18" points="467,202.6 467,326.8 360.3,265.2 282.6,220.4 214.3,180.9 175.7,158.7 
		202.8,143 252.8,114.1 282.6,96.9 283.3,96.6 	"/>
</g>
<g id="NEW编组" class="st0">
	<g class="st5">
		<polygon id="最底部斜线_3_" class="st19" points="406.1,381.9 190.1,381.9 136,350.7 190,257.1 		"/>
		<polygon id="中部斜线_6_" class="st19" points="480.6,213.4 480.6,338.2 405.7,381.4 189.7,381.4 		"/>
		<polygon id="竖直线_2_" class="st15" points="298.1,108.3 298.1,487.3 190.1,549.6 190.1,170.6 		"/>
		<polygon id="底部斜线_4_" class="st20" points="480.6,424.9 480.6,549.6 136,350.7 190,257.1 		"/>
		<polygon id="顶部斜线_5_" class="st20" points="480.6,213.5 480.6,338.2 190.2,170.6 298.2,108.2 		"/>
		<polygon id="中部斜线亮部_3_" class="st21" points="457.2,351.7 405.5,381.5 298.1,319.5 297.5,319.2 349.2,289.3 		"/>
		<polygon id="垂直下亮部_2_" class="st19" points="298.1,473.8 298.1,487.3 190.1,549.6 190.1,411.4 		"/>
		<polygon id="垂直上亮部_4_" class="st19" points="298.1,259.8 298.1,319.5 190.1,257.2 190.1,197.4 		"/>
	</g>
</g>
<g id="NEW未编组" class="st0">
	<polygon id="最底部斜线_2_" class="st22" points="403.5,382.5 187.5,382.5 133.4,351.3 187.4,257.7 	"/>
	<polygon id="中部斜线_3_" class="st22" points="478,214 478,338.8 403.1,382 187.1,382 	"/>
	<polygon id="竖直线_3_" class="st23" points="295.5,108.9 295.5,487.9 187.5,550.2 187.5,171.2 	"/>
	<polygon id="底部斜线_2_" class="st24" points="478,425.5 478,550.2 133.4,351.3 187.4,257.7 	"/>
	<polygon id="顶部斜线_3_" class="st24" points="478,214.1 478,338.8 187.6,171.2 295.6,108.8 	"/>
	<polygon id="中部斜线亮部_1_" class="st25" points="454.6,352.3 402.9,382.1 295.5,320.1 294.9,319.8 346.6,289.9 	"/>
	<polygon id="垂直下亮部_3_" class="st22" points="295.5,474.4 295.5,487.9 187.5,550.2 187.5,412 	"/>
	<polygon id="垂直上亮部_2_" class="st22" points="295.5,260.4 295.5,320.1 187.5,257.8 187.5,198 	"/>
</g>
</svg>
