<svg id="半透明" xmlns="http://www.w3.org/2000/svg" viewBox="0 0 640 640"><defs><style>.cls-1{fill:#007989;}.cls-2,.cls-3,.cls-4,.cls-5{fill:#fff;}.cls-2{opacity:0.55;}.cls-3{opacity:0.45;}.cls-4{opacity:0.7;}.cls-5{opacity:0.9;}</style></defs><g id="图层_9" data-name="图层 9"><circle class="cls-1" cx="320" cy="320" r="300"/></g><polygon id="斜中部最底层" class="cls-2" points="441.78 341.38 390.48 370.98 282.92 308.89 334.22 279.28 441.78 341.38"/><polygon id="斜中部阴影" class="cls-3" points="467 325.82 467 326.81 441.78 341.38 334.22 279.28 360.29 264.22 467 325.82"/><polygon id="垂直底部" class="cls-4" points="284 463.8 284 477.18 176 539.53 176 401.45 284 463.8"/><polygon id="垂直底部阴影" class="cls-2" points="284 432.97 284 464.01 176 401.66 176 370.98 176.31 370.79 284 432.97"/><polygon id="垂直中部" class="cls-4" points="284 250.48 284 309.96 176.55 247.92 176 247.6 176 188.13 284 250.48"/><polygon id="垂直中部阴影" class="cls-2" points="284 220.44 284 250.66 176 188.31 176 158.86 176.67 158.47 215.39 180.82 284 220.44"/><polygon id="中部斜线" class="cls-5" points="466 414.12 466 538.06 427.56 515.86 320.23 453.9 282.31 432.01 282 431.82 174.97 370.03 174.67 369.86 121.55 339.19 134.72 316.38 174.67 247.17 175.21 246.24 282 307.89 282 308.25 282.31 308.06 389.64 370.03 427.56 391.94 466 414.12"/><polygon id="顶部斜线" class="cls-5" points="467 202.63 467 326.82 360.29 265.22 282.61 220.37 214.29 180.92 175.72 158.65 202.81 143.01 252.84 114.13 282.61 96.94 283.28 96.56 467 202.63"/></svg>